<svg width="50" height="12" viewBox="0 0 50 12" fill="none" xmlns="http://www.w3.org/2000/svg">
<path d="M44.4686 9.7952C43.3291 9.7952 42.4405 8.85273 42.4405 7.70826C42.4405 6.5638 43.3291 5.62132 44.4686 5.62132C45.6085 5.62132 46.4968 6.5638 46.4968 7.70826C46.4968 8.85273 45.6085 9.7952 44.4686 9.7952ZM43.8991 12C44.8711 12 46.1115 11.6297 46.7987 10.1823L46.8657 10.2159C46.5642 11.007 46.5642 11.4782 46.5642 11.596V11.7812H49.0111V3.63532H46.5642V3.82048C46.5642 3.93829 46.5642 4.40951 46.8657 5.20053L46.7987 5.23421C46.1115 3.78681 44.8711 3.41653 43.8991 3.41653C41.569 3.41653 39.9266 5.26788 39.9266 7.70826C39.9266 10.1486 41.569 12 43.8991 12ZM35.6688 3.41653C34.5626 3.41653 33.691 3.80364 32.987 5.23421L32.92 5.20053C33.2217 4.40951 33.2217 3.93829 33.2217 3.82048V3.63532H30.7745V11.7812H33.2887V7.48947C33.2887 6.36184 33.9424 5.65495 34.9984 5.65495C36.0545 5.65495 36.5738 6.26086 36.5738 7.47263V11.7812H39.0882V6.59747C39.0882 4.74611 37.6467 3.41653 35.6688 3.41653ZM27.1372 5.23421L27.0701 5.20053C27.3719 4.40951 27.3719 3.93829 27.3719 3.82048V3.63532H24.9246V11.7812H27.4389L27.4557 7.85975C27.4557 6.71528 28.0591 6.02523 29.048 6.02523C29.3162 6.02523 29.5341 6.05891 29.7855 6.12621V3.63532C28.6793 3.39969 27.6903 3.82048 27.1372 5.23421ZM19.1419 9.7952C18.0021 9.7952 17.1137 8.85273 17.1137 7.70826C17.1137 6.5638 18.0021 5.62132 19.1419 5.62132C20.2817 5.62132 21.17 6.5638 21.17 7.70826C21.17 8.85273 20.2817 9.7952 19.1419 9.7952ZM18.572 12C19.5441 12 20.7845 11.6297 21.4717 10.1823L21.5388 10.2159C21.2371 11.007 21.2371 11.4782 21.2371 11.596V11.7812H23.6843V3.63532H21.2371V3.82048C21.2371 3.93829 21.2371 4.40951 21.5388 5.20053L21.4717 5.23421C20.7845 3.78681 19.5441 3.41653 18.572 3.41653C16.2421 3.41653 14.5994 5.26788 14.5994 7.70826C14.5994 10.1486 16.2421 12 18.572 12ZM11.0962 11.7812H13.6105V0H11.0962V11.7812ZM9.25248 0H6.68792C6.68792 2.10378 5.39729 3.98876 3.43616 5.33519L2.6651 5.87375V0H0V11.7812H2.6651V5.94109L7.07345 11.7812H10.3252L6.08451 6.19351C8.0121 4.79662 9.26923 2.6255 9.25248 0Z" fill="#0B051D"/>
</svg>
